<svg viewBox="0 0 40 20" fill="none" xmlns="http://www.w3.org/2000/svg">
  <circle cx="2" cy="10" r="2" fill="black" />
  <circle cx="8" cy="10" r="2" fill="black" />
  <circle cx="14" cy="10" r="2" fill="black" />
  <circle cx="26" cy="10" r="2" fill="black" />
  <circle cx="32" cy="10" r="2" fill="black" />
  <circle cx="38" cy="10" r="2" fill="black" />
  <circle cx="20" cy="10" r="2" fill="black" />
  <circle cx="5" cy="6" r="2" fill="black" />
  <circle cx="11" cy="6" r="2" fill="black" />
  <circle cx="23" cy="6" r="2" fill="black" />
  <circle cx="29" cy="6" r="2" fill="black" />
  <circle cx="35" cy="6" r="2" fill="black" />
  <circle cx="17" cy="6" r="2" fill="black" />
  <circle cx="5" cy="14" r="2" fill="black" />
  <circle cx="11" cy="14" r="2" fill="black" />
  <circle cx="23" cy="14" r="2" fill="black" />
  <circle cx="29" cy="14" r="2" fill="black" />
  <circle cx="35" cy="14" r="2" fill="black" />
  <circle cx="17" cy="14" r="2" fill="black" />
  <circle cx="8" cy="2" r="2" fill="black" />
  <circle cx="20" cy="2" r="2" fill="black" />
  <circle cx="26" cy="2" r="2" fill="black" />
  <circle cx="32" cy="2" r="2" fill="black" />
  <circle cx="14" cy="2" r="2" fill="black" />
  <circle cx="8" cy="18" r="2" fill="black" />
  <circle cx="20" cy="18" r="2" fill="black" />
  <circle cx="26" cy="18" r="2" fill="black" />
  <circle cx="32" cy="18" r="2" fill="black" />
  <circle cx="14" cy="18" r="2" fill="black" />
</svg>
  