<svg viewBox="0 0 118 88" fill="none" xmlns="http://www.w3.org/2000/svg">
  <circle cx="8" cy="2" r="2" fill="black" />
  <circle cx="2" cy="2" r="2" fill="black" />
  <circle cx="20" cy="2" r="2" fill="black" />
  <circle cx="14" cy="2" r="2" fill="black" />
  <circle cx="32" cy="2" r="2" fill="black" />
  <circle cx="26" cy="2" r="2" fill="black" />
  <circle cx="44" cy="2" r="2" fill="black" />
  <circle cx="38" cy="2" r="2" fill="black" />
  <circle cx="56" cy="2" r="2" fill="black" />
  <circle cx="50" cy="2" r="2" fill="black" />
  <circle cx="68" cy="2" r="2" fill="black" />
  <circle cx="62" cy="2" r="2" fill="black" />
  <circle cx="80" cy="2" r="2" fill="black" />
  <circle cx="74" cy="2" r="2" fill="black" />
  <circle cx="92" cy="2" r="2" fill="black" />
  <circle cx="86" cy="2" r="2" fill="black" />
  <circle cx="104" cy="2" r="2" fill="black" />
  <circle cx="98" cy="2" r="2" fill="black" />
  <circle cx="110" cy="2" r="2" fill="black" />
  <circle cx="4" cy="8" r="2" fill="black" />
  <circle cx="16" cy="8" r="2" fill="black" />
  <circle cx="10" cy="8" r="2" fill="black" />
  <circle cx="28" cy="8" r="2" fill="black" />
  <circle cx="22" cy="8" r="2" fill="black" />
  <circle cx="40" cy="8" r="2" fill="black" />
  <circle cx="34" cy="8" r="2" fill="black" />
  <circle cx="52" cy="8" r="2" fill="black" />
  <circle cx="46" cy="8" r="2" fill="black" />
  <circle cx="64" cy="8" r="2" fill="black" />
  <circle cx="58" cy="8" r="2" fill="black" />
  <circle cx="76" cy="8" r="2" fill="black" />
  <circle cx="70" cy="8" r="2" fill="black" />
  <circle cx="88" cy="8" r="2" fill="black" />
  <circle cx="82" cy="8" r="2" fill="black" />
  <circle cx="100" cy="8" r="2" fill="black" />
  <circle cx="94" cy="8" r="2" fill="black" />
  <circle cx="106" cy="8" r="2" fill="black" />
  <circle cx="116" cy="2" r="2" fill="black" />
  <circle cx="112" cy="8" r="2" fill="black" />
  <circle cx="8" cy="14" r="2" fill="black" />
  <circle cx="2" cy="14" r="2" fill="black" />
  <circle cx="20" cy="14" r="2" fill="black" />
  <circle cx="14" cy="14" r="2" fill="black" />
  <circle cx="32" cy="14" r="2" fill="black" />
  <circle cx="26" cy="14" r="2" fill="black" />
  <circle cx="44" cy="14" r="2" fill="black" />
  <circle cx="38" cy="14" r="2" fill="black" />
  <circle cx="56" cy="14" r="2" fill="black" />
  <circle cx="50" cy="14" r="2" fill="black" />
  <circle cx="68" cy="14" r="2" fill="black" />
  <circle cx="62" cy="14" r="2" fill="black" />
  <circle cx="80" cy="14" r="2" fill="black" />
  <circle cx="74" cy="14" r="2" fill="black" />
  <circle cx="92" cy="14" r="2" fill="black" />
  <circle cx="86" cy="14" r="2" fill="black" />
  <circle cx="104" cy="14" r="2" fill="black" />
  <circle cx="98" cy="14" r="2" fill="black" />
  <circle cx="110" cy="14" r="2" fill="black" />
  <circle cx="4" cy="20" r="2" fill="black" />
  <circle cx="16" cy="20" r="2" fill="black" />
  <circle cx="10" cy="20" r="2" fill="black" />
  <circle cx="28" cy="20" r="2" fill="black" />
  <circle cx="22" cy="20" r="2" fill="black" />
  <circle cx="40" cy="20" r="2" fill="black" />
  <circle cx="34" cy="20" r="2" fill="black" />
  <circle cx="52" cy="20" r="2" fill="black" />
  <circle cx="46" cy="20" r="2" fill="black" />
  <circle cx="64" cy="20" r="2" fill="black" />
  <circle cx="58" cy="20" r="2" fill="black" />
  <circle cx="76" cy="20" r="2" fill="black" />
  <circle cx="70" cy="20" r="2" fill="black" />
  <circle cx="88" cy="20" r="2" fill="black" />
  <circle cx="82" cy="20" r="2" fill="black" />
  <circle cx="100" cy="20" r="2" fill="black" />
  <circle cx="94" cy="20" r="2" fill="black" />
  <circle cx="106" cy="20" r="2" fill="black" />
  <circle cx="116" cy="14" r="2" fill="black" />
  <circle cx="112" cy="20" r="2" fill="black" />
  <circle cx="8" cy="26" r="2" fill="black" />
  <circle cx="2" cy="26" r="2" fill="black" />
  <circle cx="20" cy="26" r="2" fill="black" />
  <circle cx="14" cy="26" r="2" fill="black" />
  <circle cx="32" cy="26" r="2" fill="black" />
  <circle cx="26" cy="26" r="2" fill="black" />
  <circle cx="44" cy="26" r="2" fill="black" />
  <circle cx="38" cy="26" r="2" fill="black" />
  <circle cx="56" cy="26" r="2" fill="black" />
  <circle cx="50" cy="26" r="2" fill="black" />
  <circle cx="68" cy="26" r="2" fill="black" />
  <circle cx="62" cy="26" r="2" fill="black" />
  <circle cx="80" cy="26" r="2" fill="black" />
  <circle cx="74" cy="26" r="2" fill="black" />
  <circle cx="92" cy="26" r="2" fill="black" />
  <circle cx="86" cy="26" r="2" fill="black" />
  <circle cx="104" cy="26" r="2" fill="black" />
  <circle cx="98" cy="26" r="2" fill="black" />
  <circle cx="110" cy="26" r="2" fill="black" />
  <circle cx="4" cy="32" r="2" fill="black" />
  <circle cx="16" cy="32" r="2" fill="black" />
  <circle cx="10" cy="32" r="2" fill="black" />
  <circle cx="28" cy="32" r="2" fill="black" />
  <circle cx="22" cy="32" r="2" fill="black" />
  <circle cx="40" cy="32" r="2" fill="black" />
  <circle cx="34" cy="32" r="2" fill="black" />
  <circle cx="52" cy="32" r="2" fill="black" />
  <circle cx="46" cy="32" r="2" fill="black" />
  <circle cx="64" cy="32" r="2" fill="black" />
  <circle cx="58" cy="32" r="2" fill="black" />
  <circle cx="76" cy="32" r="2" fill="black" />
  <circle cx="70" cy="32" r="2" fill="black" />
  <circle cx="88" cy="32" r="2" fill="black" />
  <circle cx="82" cy="32" r="2" fill="black" />
  <circle cx="100" cy="32" r="2" fill="black" />
  <circle cx="94" cy="32" r="2" fill="black" />
  <circle cx="106" cy="32" r="2" fill="black" />
  <circle cx="116" cy="26" r="2" fill="black" />
  <circle cx="112" cy="32" r="2" fill="black" />
  <circle cx="8" cy="38" r="2" fill="black" />
  <circle cx="2" cy="38" r="2" fill="black" />
  <circle cx="20" cy="38" r="2" fill="black" />
  <circle cx="14" cy="38" r="2" fill="black" />
  <circle cx="32" cy="38" r="2" fill="black" />
  <circle cx="26" cy="38" r="2" fill="black" />
  <circle cx="44" cy="38" r="2" fill="black" />
  <circle cx="38" cy="38" r="2" fill="black" />
  <circle cx="56" cy="38" r="2" fill="black" />
  <circle cx="50" cy="38" r="2" fill="black" />
  <circle cx="68" cy="38" r="2" fill="black" />
  <circle cx="62" cy="38" r="2" fill="black" />
  <circle cx="80" cy="38" r="2" fill="black" />
  <circle cx="74" cy="38" r="2" fill="black" />
  <circle cx="92" cy="38" r="2" fill="black" />
  <circle cx="86" cy="38" r="2" fill="black" />
  <circle cx="104" cy="38" r="2" fill="black" />
  <circle cx="98" cy="38" r="2" fill="black" />
  <circle cx="110" cy="38" r="2" fill="black" />
  <circle cx="4" cy="44" r="2" fill="black" />
  <circle cx="16" cy="44" r="2" fill="black" />
  <circle cx="10" cy="44" r="2" fill="black" />
  <circle cx="28" cy="44" r="2" fill="black" />
  <circle cx="22" cy="44" r="2" fill="black" />
  <circle cx="40" cy="44" r="2" fill="black" />
  <circle cx="34" cy="44" r="2" fill="black" />
  <circle cx="52" cy="44" r="2" fill="black" />
  <circle cx="46" cy="44" r="2" fill="black" />
  <circle cx="64" cy="44" r="2" fill="black" />
  <circle cx="58" cy="44" r="2" fill="black" />
  <circle cx="76" cy="44" r="2" fill="black" />
  <circle cx="70" cy="44" r="2" fill="black" />
  <circle cx="88" cy="44" r="2" fill="black" />
  <circle cx="82" cy="44" r="2" fill="black" />
  <circle cx="100" cy="44" r="2" fill="black" />
  <circle cx="94" cy="44" r="2" fill="black" />
  <circle cx="106" cy="44" r="2" fill="black" />
  <circle cx="116" cy="38" r="2" fill="black" />
  <circle cx="112" cy="44" r="2" fill="black" />
  <circle cx="8" cy="50" r="2" fill="black" />
  <circle cx="2" cy="50" r="2" fill="black" />
  <circle cx="20" cy="50" r="2" fill="black" />
  <circle cx="14" cy="50" r="2" fill="black" />
  <circle cx="32" cy="50" r="2" fill="black" />
  <circle cx="26" cy="50" r="2" fill="black" />
  <circle cx="44" cy="50" r="2" fill="black" />
  <circle cx="38" cy="50" r="2" fill="black" />
  <circle cx="56" cy="50" r="2" fill="black" />
  <circle cx="50" cy="50" r="2" fill="black" />
  <circle cx="68" cy="50" r="2" fill="black" />
  <circle cx="62" cy="50" r="2" fill="black" />
  <circle cx="80" cy="50" r="2" fill="black" />
  <circle cx="74" cy="50" r="2" fill="black" />
  <circle cx="92" cy="50" r="2" fill="black" />
  <circle cx="86" cy="50" r="2" fill="black" />
  <circle cx="104" cy="50" r="2" fill="black" />
  <circle cx="98" cy="50" r="2" fill="black" />
  <circle cx="110" cy="50" r="2" fill="black" />
  <circle cx="4" cy="56" r="2" fill="black" />
  <circle cx="16" cy="56" r="2" fill="black" />
  <circle cx="10" cy="56" r="2" fill="black" />
  <circle cx="28" cy="56" r="2" fill="black" />
  <circle cx="22" cy="56" r="2" fill="black" />
  <circle cx="40" cy="56" r="2" fill="black" />
  <circle cx="34" cy="56" r="2" fill="black" />
  <circle cx="52" cy="56" r="2" fill="black" />
  <circle cx="46" cy="56" r="2" fill="black" />
  <circle cx="64" cy="56" r="2" fill="black" />
  <circle cx="58" cy="56" r="2" fill="black" />
  <circle cx="76" cy="56" r="2" fill="black" />
  <circle cx="70" cy="56" r="2" fill="black" />
  <circle cx="88" cy="56" r="2" fill="black" />
  <circle cx="82" cy="56" r="2" fill="black" />
  <circle cx="100" cy="56" r="2" fill="black" />
  <circle cx="94" cy="56" r="2" fill="black" />
  <circle cx="106" cy="56" r="2" fill="black" />
  <circle cx="116" cy="50" r="2" fill="black" />
  <circle cx="112" cy="56" r="2" fill="black" />
  <circle cx="8" cy="62" r="2" fill="black" />
  <circle cx="2" cy="62" r="2" fill="black" />
  <circle cx="20" cy="62" r="2" fill="black" />
  <circle cx="14" cy="62" r="2" fill="black" />
  <circle cx="32" cy="62" r="2" fill="black" />
  <circle cx="26" cy="62" r="2" fill="black" />
  <circle cx="44" cy="62" r="2" fill="black" />
  <circle cx="38" cy="62" r="2" fill="black" />
  <circle cx="56" cy="62" r="2" fill="black" />
  <circle cx="50" cy="62" r="2" fill="black" />
  <circle cx="68" cy="62" r="2" fill="black" />
  <circle cx="62" cy="62" r="2" fill="black" />
  <circle cx="80" cy="62" r="2" fill="black" />
  <circle cx="74" cy="62" r="2" fill="black" />
  <circle cx="92" cy="62" r="2" fill="black" />
  <circle cx="86" cy="62" r="2" fill="black" />
  <circle cx="104" cy="62" r="2" fill="black" />
  <circle cx="98" cy="62" r="2" fill="black" />
  <circle cx="110" cy="62" r="2" fill="black" />
  <circle cx="4" cy="68" r="2" fill="black" />
  <circle cx="16" cy="68" r="2" fill="black" />
  <circle cx="10" cy="68" r="2" fill="black" />
  <circle cx="28" cy="68" r="2" fill="black" />
  <circle cx="22" cy="68" r="2" fill="black" />
  <circle cx="40" cy="68" r="2" fill="black" />
  <circle cx="34" cy="68" r="2" fill="black" />
  <circle cx="52" cy="68" r="2" fill="black" />
  <circle cx="46" cy="68" r="2" fill="black" />
  <circle cx="64" cy="68" r="2" fill="black" />
  <circle cx="58" cy="68" r="2" fill="black" />
  <circle cx="76" cy="68" r="2" fill="black" />
  <circle cx="70" cy="68" r="2" fill="black" />
  <circle cx="88" cy="68" r="2" fill="black" />
  <circle cx="82" cy="68" r="2" fill="black" />
  <circle cx="100" cy="68" r="2" fill="black" />
  <circle cx="94" cy="68" r="2" fill="black" />
  <circle cx="106" cy="68" r="2" fill="black" />
  <circle cx="116" cy="62" r="2" fill="black" />
  <circle cx="112" cy="68" r="2" fill="black" />
  <circle cx="8" cy="74" r="2" fill="black" />
  <circle cx="2" cy="74" r="2" fill="black" />
  <circle cx="20" cy="74" r="2" fill="black" />
  <circle cx="14" cy="74" r="2" fill="black" />
  <circle cx="32" cy="74" r="2" fill="black" />
  <circle cx="26" cy="74" r="2" fill="black" />
  <circle cx="44" cy="74" r="2" fill="black" />
  <circle cx="38" cy="74" r="2" fill="black" />
  <circle cx="56" cy="74" r="2" fill="black" />
  <circle cx="50" cy="74" r="2" fill="black" />
  <circle cx="68" cy="74" r="2" fill="black" />
  <circle cx="62" cy="74" r="2" fill="black" />
  <circle cx="80" cy="74" r="2" fill="black" />
  <circle cx="74" cy="74" r="2" fill="black" />
  <circle cx="92" cy="74" r="2" fill="black" />
  <circle cx="86" cy="74" r="2" fill="black" />
  <circle cx="104" cy="74" r="2" fill="black" />
  <circle cx="98" cy="74" r="2" fill="black" />
  <circle cx="110" cy="74" r="2" fill="black" />
  <circle cx="4" cy="80" r="2" fill="black" />
  <circle cx="16" cy="80" r="2" fill="black" />
  <circle cx="10" cy="80" r="2" fill="black" />
  <circle cx="28" cy="80" r="2" fill="black" />
  <circle cx="22" cy="80" r="2" fill="black" />
  <circle cx="40" cy="80" r="2" fill="black" />
  <circle cx="34" cy="80" r="2" fill="black" />
  <circle cx="52" cy="80" r="2" fill="black" />
  <circle cx="46" cy="80" r="2" fill="black" />
  <circle cx="64" cy="80" r="2" fill="black" />
  <circle cx="58" cy="80" r="2" fill="black" />
  <circle cx="76" cy="80" r="2" fill="black" />
  <circle cx="70" cy="80" r="2" fill="black" />
  <circle cx="88" cy="80" r="2" fill="black" />
  <circle cx="82" cy="80" r="2" fill="black" />
  <circle cx="100" cy="80" r="2" fill="black" />
  <circle cx="94" cy="80" r="2" fill="black" />
  <circle cx="106" cy="80" r="2" fill="black" />
  <circle cx="116" cy="74" r="2" fill="black" />
  <circle cx="112" cy="80" r="2" fill="black" />
  <circle cx="8" cy="86" r="2" fill="black" />
  <circle cx="2" cy="86" r="2" fill="black" />
  <circle cx="20" cy="86" r="2" fill="black" />
  <circle cx="14" cy="86" r="2" fill="black" />
  <circle cx="32" cy="86" r="2" fill="black" />
  <circle cx="26" cy="86" r="2" fill="black" />
  <circle cx="44" cy="86" r="2" fill="black" />
  <circle cx="38" cy="86" r="2" fill="black" />
  <circle cx="56" cy="86" r="2" fill="black" />
  <circle cx="50" cy="86" r="2" fill="black" />
  <circle cx="68" cy="86" r="2" fill="black" />
  <circle cx="62" cy="86" r="2" fill="black" />
  <circle cx="80" cy="86" r="2" fill="black" />
  <circle cx="74" cy="86" r="2" fill="black" />
  <circle cx="92" cy="86" r="2" fill="black" />
  <circle cx="86" cy="86" r="2" fill="black" />
  <circle cx="104" cy="86" r="2" fill="black" />
  <circle cx="98" cy="86" r="2" fill="black" />
  <circle cx="110" cy="86" r="2" fill="black" />
  <circle cx="116" cy="86" r="2" fill="black" />
</svg>
  